<svg width="57" height="49" viewBox="0 0 57 49" fill="none" xmlns="http://www.w3.org/2000/svg">
<ellipse cx="28.0465" cy="24.4945" rx="28.0465" ry="23.6667" fill="#BA68C8" fill-opacity="0.3"/>
<path d="M42.3814 22.2514V18.079C42.3814 17.3351 42.0312 16.6217 41.4078 16.0956C40.7844 15.5696 39.9389 15.2741 39.0574 15.2741H29.0853V13.434C29.5922 13.0498 29.9163 12.4972 29.9163 11.8773C29.9163 11.3194 29.6536 10.7843 29.1861 10.3898C28.7186 9.99524 28.0844 9.77361 27.4233 9.77361C26.7621 9.77361 26.128 9.99524 25.6604 10.3898C25.1929 10.7843 24.9302 11.3194 24.9302 11.8773C24.9302 12.4972 25.2543 13.0498 25.7612 13.434V15.2741H15.7891C14.9076 15.2741 14.0621 15.5696 13.4387 16.0956C12.8153 16.6217 12.4651 17.3351 12.4651 18.079V22.2836L12.3455 22.2906C11.9264 22.3158 11.5343 22.4741 11.2481 22.7336C10.9619 22.9931 10.8029 23.3344 10.8031 23.6889V26.4938C10.8031 26.8658 10.9782 27.2225 11.2899 27.4855C11.6016 27.7486 12.0243 27.8963 12.4651 27.8963V34.9087C12.4651 35.6526 12.8153 36.366 13.4387 36.892C14.0621 37.4181 14.9076 37.7136 15.7891 37.7136H39.0574C39.9389 37.7136 40.7844 37.4181 41.4078 36.892C42.0312 36.366 42.3814 35.6526 42.3814 34.9087V27.8963C42.8222 27.8963 43.2449 27.7486 43.5566 27.4855C43.8683 27.2225 44.0434 26.8658 44.0434 26.4938V23.7759C44.0627 23.5582 44.0217 23.3397 43.9237 23.1377C43.588 22.4533 42.8684 22.2892 42.3814 22.2514ZM19.1132 23.6889C19.1132 22.1406 20.2301 20.884 21.6062 20.884C22.9823 20.884 24.0992 22.1406 24.0992 23.6889C24.0992 25.2372 22.9823 26.4938 21.6062 26.4938C20.2301 26.4938 19.1132 25.2372 19.1132 23.6889ZM34.068 32.1037C32.4043 32.0995 20.7752 32.1037 20.7752 32.1037V29.2988C20.7752 29.2988 32.411 29.296 34.0746 29.2988L34.068 32.1037ZM33.2403 26.4938C31.8642 26.4938 30.7473 25.2372 30.7473 23.6889C30.7473 22.1406 31.8642 20.884 33.2403 20.884C34.6165 20.884 35.7333 22.1406 35.7333 23.6889C35.7333 25.2372 34.6165 26.4938 33.2403 26.4938Z" fill="#5829DF" fill-opacity="0.8"/>
</svg>
