<svg width="25" height="25" viewBox="0 0 25 25" fill="none" xmlns="http://www.w3.org/2000/svg">
<rect width="24" height="24" transform="translate(0.302307 0.5)" fill="white"/>
<path d="M22.5211 7.76281C22.2746 7.48366 21.9717 7.26013 21.6322 7.10706C21.2928 6.95399 20.9247 6.87489 20.5523 6.875H15.6773V5.75C15.6761 4.65636 15.2411 3.60787 14.4678 2.83455C13.6944 2.06124 12.6459 1.62624 11.5523 1.625C11.3435 1.62502 11.1388 1.68318 10.9611 1.79296C10.7834 1.90273 10.6398 2.0598 10.5464 2.24656L7.10668 9.125H3.30231C2.80503 9.125 2.32811 9.32254 1.97648 9.67417C1.62485 10.0258 1.42731 10.5027 1.42731 11V19.25C1.42731 19.7473 1.62485 20.2242 1.97648 20.5758C2.32811 20.9275 2.80503 21.125 3.30231 21.125H19.4273C20.0671 21.1249 20.6848 20.8912 21.1644 20.4677C21.644 20.0442 21.9524 19.4602 22.0317 18.8253L23.1567 9.82531C23.203 9.45612 23.1702 9.0813 23.0606 8.72572C22.9511 8.37013 22.7671 8.04191 22.5211 7.76281ZM3.67731 11.375H6.67731V18.875H3.67731V11.375ZM20.9273 9.54688L19.8023 18.5469C19.7908 18.638 19.7463 18.7217 19.6772 18.7822C19.6081 18.8427 19.5192 18.8757 19.4273 18.875H8.92731V10.5153L12.1917 3.9875C12.5537 4.11882 12.8665 4.35844 13.0876 4.67378C13.3087 4.98912 13.4273 5.36489 13.4273 5.75V8C13.4273 8.29837 13.5458 8.58452 13.7568 8.7955C13.9678 9.00647 14.2539 9.125 14.5523 9.125H20.5523C20.6058 9.12458 20.6587 9.13559 20.7075 9.1573C20.7564 9.179 20.8 9.2109 20.8355 9.25085C20.871 9.2908 20.8976 9.33788 20.9134 9.38894C20.9293 9.43999 20.934 9.49384 20.9273 9.54688Z" fill="#100F0D"/>
</svg>
