<svg width="21" height="21" viewBox="0 0 21 21" fill="none" xmlns="http://www.w3.org/2000/svg">
<path fill-rule="evenodd" clip-rule="evenodd" d="M6.96897 7.16667H13.6356C14.0956 7.16667 14.469 6.79417 14.469 6.33333V3C14.469 2.53917 14.0956 2.16667 13.6356 2.16667H6.96897C6.50897 2.16667 6.13564 2.53917 6.13564 3V6.33333C6.13564 6.79417 6.50897 7.16667 6.96897 7.16667ZM15.3023 6.33333V3.83333C16.6806 3.83333 17.8023 4.955 17.8023 6.33333V16.3333C17.8023 17.7117 16.6806 18.8333 15.3023 18.8333H5.30231C3.92397 18.8333 2.80231 17.7117 2.80231 16.3333V6.33333C2.80231 4.955 3.92397 3.83333 5.30231 3.83333V6.33333C5.30231 7.2525 6.04981 8 6.96897 8H13.6356C14.5548 8 15.3023 7.2525 15.3023 6.33333Z" fill="#100F0D"/>
<mask id="mask0_211_1324" style="mask-type:luminance" maskUnits="userSpaceOnUse" x="2" y="2" width="16" height="17">
<path fill-rule="evenodd" clip-rule="evenodd" d="M6.96897 7.16667H13.6356C14.0956 7.16667 14.469 6.79417 14.469 6.33333V3C14.469 2.53917 14.0956 2.16667 13.6356 2.16667H6.96897C6.50897 2.16667 6.13564 2.53917 6.13564 3V6.33333C6.13564 6.79417 6.50897 7.16667 6.96897 7.16667ZM15.3023 6.33333V3.83333C16.6806 3.83333 17.8023 4.955 17.8023 6.33333V16.3333C17.8023 17.7117 16.6806 18.8333 15.3023 18.8333H5.30231C3.92397 18.8333 2.80231 17.7117 2.80231 16.3333V6.33333C2.80231 4.955 3.92397 3.83333 5.30231 3.83333V6.33333C5.30231 7.2525 6.04981 8 6.96897 8H13.6356C14.5548 8 15.3023 7.2525 15.3023 6.33333Z" fill="white"/>
</mask>
<g mask="url(#mask0_211_1324)">
<rect x="0.302307" y="0.5" width="20" height="20" fill="#100F0D"/>
</g>
</svg>
