<svg width="25" height="25" viewBox="0 0 25 25" fill="none" xmlns="http://www.w3.org/2000/svg">
<path d="M22.7854 15.2188L21.6604 6.21875C21.5919 5.67489 21.3272 5.17475 20.916 4.81224C20.5048 4.44974 19.9755 4.24981 19.4273 4.25H3.30231C2.90448 4.25 2.52295 4.40804 2.24165 4.68934C1.96034 4.97064 1.80231 5.35218 1.80231 5.75V14C1.80231 14.3978 1.96034 14.7794 2.24165 15.0607C2.52295 15.342 2.90448 15.5 3.30231 15.5H7.33918L10.8811 22.5856C10.9434 22.7102 11.0392 22.815 11.1578 22.8882C11.2764 22.9614 11.413 23.0001 11.5523 23C12.5469 23 13.5007 22.6049 14.204 21.9017C14.9072 21.1984 15.3023 20.2446 15.3023 19.25V17.75H20.5523C20.8716 17.7501 21.1872 17.6823 21.4783 17.551C21.7693 17.4197 22.0291 17.228 22.2403 16.9885C22.4516 16.7491 22.6094 16.4675 22.7034 16.1623C22.7974 15.8572 22.8253 15.5355 22.7854 15.2188ZM7.05231 14H3.30231V5.75H7.05231V14Z" fill="#100F0D"/>
</svg>
