<svg width="23" height="17" viewBox="0 0 23 17" fill="none" xmlns="http://www.w3.org/2000/svg">
<path d="M12.4636 8.67194L3.58057 9.76575C3.47845 9.77835 3.38261 9.81059 3.3027 9.85924C3.22278 9.9079 3.16161 9.97124 3.12534 10.0429L0.0625178 16.1072C-0.229966 16.6651 0.559032 17.1967 1.28316 16.9283L22.5118 9.08419C22.6585 9.02984 22.7819 8.9464 22.8681 8.84319C22.9543 8.73999 23 8.62109 23 8.4998C23 8.37852 22.9543 8.25962 22.8681 8.15641C22.7819 8.05321 22.6585 7.96977 22.5118 7.91542L1.28316 0.0713446C0.559032 -0.196226 -0.229966 0.335428 0.0625178 0.892358L3.12652 6.9567C3.16279 7.02837 3.22396 7.09171 3.30388 7.14036C3.38379 7.18902 3.47963 7.22126 3.58175 7.23386L12.4648 8.32767C12.5202 8.33421 12.5706 8.35513 12.607 8.38668C12.6434 8.41822 12.6635 8.45833 12.6635 8.4998C12.6635 8.54127 12.6434 8.58138 12.607 8.61293C12.5706 8.64448 12.5202 8.6654 12.4648 8.67194H12.4636Z" fill="#999999"/>
</svg>
