<svg width="57" height="48" viewBox="0 0 57 48" fill="none" xmlns="http://www.w3.org/2000/svg">
<ellipse cx="28.0465" cy="23.7778" rx="28.0465" ry="23.6667" fill="#BA68C8" fill-opacity="0.3"/>
<path d="M42.3814 21.5346V17.3623C42.3814 16.6184 42.0312 15.9049 41.4078 15.3789C40.7844 14.8529 39.9389 14.5574 39.0574 14.5574H29.0853V12.7173C29.5922 12.333 29.9163 11.7805 29.9163 11.1606C29.9163 10.6026 29.6536 10.0676 29.1861 9.67303C28.7186 9.27851 28.0844 9.05687 27.4233 9.05687C26.7621 9.05687 26.128 9.27851 25.6604 9.67303C25.1929 10.0676 24.9302 10.6026 24.9302 11.1606C24.9302 11.7805 25.2543 12.333 25.7612 12.7173V14.5574H15.7891C14.9076 14.5574 14.0621 14.8529 13.4387 15.3789C12.8153 15.9049 12.4651 16.6184 12.4651 17.3623V21.5669L12.3455 21.5739C11.9264 21.5991 11.5343 21.7574 11.2481 22.0168C10.9619 22.2763 10.8029 22.6177 10.8031 22.9722V25.7771C10.8031 26.1491 10.9782 26.5058 11.2899 26.7688C11.6016 27.0318 12.0243 27.1796 12.4651 27.1796V34.1919C12.4651 34.9358 12.8153 35.6493 13.4387 36.1753C14.0621 36.7013 14.9076 36.9969 15.7891 36.9969H39.0574C39.9389 36.9969 40.7844 36.7013 41.4078 36.1753C42.0312 35.6493 42.3814 34.9358 42.3814 34.1919V27.1796C42.8222 27.1796 43.2449 27.0318 43.5566 26.7688C43.8683 26.5058 44.0434 26.1491 44.0434 25.7771V23.0591C44.0627 22.8415 44.0217 22.623 43.9237 22.421C43.588 21.7366 42.8684 21.5725 42.3814 21.5346ZM19.1132 22.9722C19.1132 21.4238 20.2301 20.1672 21.6062 20.1672C22.9823 20.1672 24.0992 21.4238 24.0992 22.9722C24.0992 24.5205 22.9823 25.7771 21.6062 25.7771C20.2301 25.7771 19.1132 24.5205 19.1132 22.9722ZM34.068 31.387C32.4043 31.3828 20.7752 31.387 20.7752 31.387V28.582C20.7752 28.582 32.411 28.5792 34.0746 28.582L34.068 31.387ZM33.2403 25.7771C31.8642 25.7771 30.7473 24.5205 30.7473 22.9722C30.7473 21.4238 31.8642 20.1672 33.2403 20.1672C34.6165 20.1672 35.7333 21.4238 35.7333 22.9722C35.7333 24.5205 34.6165 25.7771 33.2403 25.7771Z" fill="#5829DF" fill-opacity="0.8"/>
</svg>
