<svg width="58" height="48" viewBox="0 0 58 48" fill="none" xmlns="http://www.w3.org/2000/svg">
<path d="M44.7528 21.5376V17.137C44.7528 16.3524 44.3835 15.6 43.726 15.0452C43.0685 14.4904 42.1768 14.1787 41.247 14.1787H30.7296V12.238C31.2642 11.8327 31.606 11.25 31.606 10.5962C31.606 10.0077 31.329 9.44336 30.8359 9.02727C30.3428 8.61117 29.674 8.37741 28.9767 8.37741C28.2793 8.37741 27.6105 8.61117 27.1174 9.02727C26.6243 9.44336 26.3473 10.0077 26.3473 10.5962C26.3473 11.25 26.6891 11.8327 27.2238 12.238V14.1787H16.7063C15.7765 14.1787 14.8848 14.4904 14.2273 15.0452C13.5699 15.6 13.2005 16.3524 13.2005 17.137V21.5716L13.0743 21.579C12.6324 21.6055 12.2188 21.7725 11.917 22.0461C11.6151 22.3198 11.4474 22.6798 11.4476 23.0537V26.012C11.4476 26.4043 11.6323 26.7806 11.961 27.058C12.2898 27.3354 12.7356 27.4912 13.2005 27.4912V34.887C13.2005 35.6716 13.5699 36.4241 14.2273 36.9789C14.8848 37.5337 15.7765 37.8454 16.7063 37.8454H41.247C42.1768 37.8454 43.0685 37.5337 43.726 36.9789C44.3835 36.4241 44.7528 35.6716 44.7528 34.887V27.4912C45.2177 27.4912 45.6636 27.3354 45.9923 27.058C46.3211 26.7806 46.5058 26.4043 46.5058 26.012V23.1454C46.5261 22.9158 46.4829 22.6854 46.3795 22.4724C46.0255 21.7506 45.2664 21.5775 44.7528 21.5376ZM20.2121 23.0537C20.2121 21.4207 21.3901 20.0954 22.8415 20.0954C24.2929 20.0954 25.4709 21.4207 25.4709 23.0537C25.4709 24.6867 24.2929 26.012 22.8415 26.012C21.3901 26.012 20.2121 24.6867 20.2121 23.0537ZM35.9848 31.9287C34.2301 31.9243 21.9651 31.9287 21.9651 31.9287V28.9704C21.9651 28.9704 34.2372 28.9674 35.9918 28.9704L35.9848 31.9287ZM35.1119 26.012C33.6604 26.012 32.4825 24.6867 32.4825 23.0537C32.4825 21.4207 33.6604 20.0954 35.1119 20.0954C36.5633 20.0954 37.7412 21.4207 37.7412 23.0537C37.7412 24.6867 36.5633 26.012 35.1119 26.012Z" fill="#ECF4FF"/>
<path d="M56.5232 24.237C56.5232 36.9554 44.2731 47.4037 28.9767 47.4037C13.6802 47.4037 1.43018 36.9554 1.43018 24.237C1.43018 11.5186 13.6802 1.07037 28.9767 1.07037C44.2731 1.07037 56.5232 11.5186 56.5232 24.237Z" stroke="white"/>
</svg>
