<svg width="26" height="17" viewBox="0 0 26 17" fill="none" xmlns="http://www.w3.org/2000/svg">
<path d="M14.0893 8.67194L4.04761 9.76575C3.93216 9.77835 3.82382 9.81059 3.73348 9.85924C3.64315 9.9079 3.574 9.97124 3.53299 10.0429L0.0706723 16.1072C-0.259961 16.6651 0.631949 17.1967 1.45053 16.9283L25.4481 9.08419C25.614 9.02984 25.7535 8.9464 25.8509 8.84319C25.9484 8.73999 26 8.62109 26 8.4998C26 8.37852 25.9484 8.25962 25.8509 8.15641C25.7535 8.05321 25.614 7.96977 25.4481 7.91542L1.45053 0.0713446C0.631949 -0.196226 -0.259961 0.335428 0.0706723 0.892358L3.53432 6.9567C3.57533 7.02837 3.64448 7.09171 3.73482 7.14036C3.82515 7.18902 3.93349 7.22126 4.04894 7.23386L14.0906 8.32767C14.1532 8.33421 14.2103 8.35513 14.2514 8.38668C14.2926 8.41822 14.3152 8.45833 14.3152 8.4998C14.3152 8.54127 14.2926 8.58138 14.2514 8.61293C14.2103 8.64448 14.1532 8.6654 14.0906 8.67194H14.0893Z" fill="#999999"/>
</svg>
